<?xml version="1.0" encoding="UTF-8" standalone="no"?>
<svg
   width="200"
   height="200"
   viewBox="0 0 200 200"
   version="1.1"
   id="svg11772"
   sodipodi:docname="dark-padlock.svg"
   inkscape:version="1.1.2 (0a00cf5339, 2022-02-04, custom)"
   xmlns:inkscape="http://www.inkscape.org/namespaces/inkscape"
   xmlns:sodipodi="http://sodipodi.sourceforge.net/DTD/sodipodi-0.dtd"
   xmlns="http://www.w3.org/2000/svg"
   xmlns:svg="http://www.w3.org/2000/svg">
  <sodipodi:namedview
     id="namedview11774"
     pagecolor="#ffffff"
     bordercolor="#666666"
     borderopacity="1.0"
     inkscape:pageshadow="2"
     inkscape:pageopacity="0"
     inkscape:pagecheckerboard="true"
     showgrid="true"
     inkscape:zoom="2.960837"
     inkscape:cx="81.733645"
     inkscape:cy="221.3901"
     inkscape:window-width="3840"
     inkscape:window-height="2068"
     inkscape:window-x="-12"
     inkscape:window-y="-12"
     inkscape:window-maximized="1"
     inkscape:current-layer="svg11772">
    <inkscape:grid
       type="xygrid"
       id="grid12042"
       enabled="false" />
  </sodipodi:namedview>
  <defs
     id="defs11755">
    <style
       id="style11732">
      .cls-1, .cls-2, .cls-3 {
        fill: #a9b0dc;
        stroke: #3c3c3c;
        stroke-linejoin: round;
        stroke-width: 8px;
        fill-rule: evenodd;
      }
    </style>
  </defs>
  <path
     style="fill:#f2f2f2;fill-opacity:1;fill-rule:evenodd;stroke:#000000;stroke-width:15;stroke-linecap:round;stroke-linejoin:round;stroke-miterlimit:4;stroke-dasharray:none;stroke-opacity:1"
     d="M15,170 15,115 a25,25 0 0 1 25,-25 L40,90 40,55 a50,50 0 0 1 50,-50 L110,5 a50,50 0 0 1 50,50 L160,90 a25,25 0 0 1 25,25 L185,170 a25,25 0 0 1 -25,25 L40,195 a25,25 0 0 1 -25,-25 z M 70,90 70,55 a20,20 0 0 1 20,-20 L110,35 a20,20 0 0 1 20,20 L130,90 z"
     id="path12483"
     sodipodi:nodetypes="ccccccccccccc"
     transform="matrix(0.97560976,0,0,0.97560976,2.439024,2.439024)" />
</svg>
