<?xml version="1.0" encoding="UTF-8" standalone="no"?>
<svg
   width="200"
   height="200"
   viewBox="0 0 200 200"
   version="1.1"
   id="svg11772"
   sodipodi:docname="light-padlock.svg"
   inkscape:version="1.1.2 (0a00cf5339, 2022-02-04, custom)"
   xmlns:inkscape="http://www.inkscape.org/namespaces/inkscape"
   xmlns:sodipodi="http://sodipodi.sourceforge.net/DTD/sodipodi-0.dtd"
   xmlns="http://www.w3.org/2000/svg"
   xmlns:svg="http://www.w3.org/2000/svg">
  <sodipodi:namedview
     id="namedview11774"
     pagecolor="#ffffff"
     bordercolor="#666666"
     borderopacity="1.0"
     inkscape:pageshadow="2"
     inkscape:pageopacity="0"
     inkscape:pagecheckerboard="true"
     showgrid="true"
     inkscape:zoom="2.960837"
     inkscape:cx="49.985865"
     inkscape:cy="221.3901"
     inkscape:window-width="3840"
     inkscape:window-height="2068"
     inkscape:window-x="-12"
     inkscape:window-y="-12"
     inkscape:window-maximized="1"
     inkscape:current-layer="svg11772">
    <inkscape:grid
       type="xygrid"
       id="grid12042"
       enabled="false" />
  </sodipodi:namedview>
  <defs
     id="defs11755">
    <style
       id="style11732">
      .cls-1, .cls-2, .cls-3 {
        fill: #a9b0dc;
        stroke: #3c3c3c;
        stroke-linejoin: round;
        stroke-width: 8px;
        fill-rule: evenodd;
      }
    </style>
  </defs>
  <path
     style="fill:#000000;fill-opacity:1;fill-rule:evenodd;stroke:#222222;stroke-width:0;stroke-linecap:round;stroke-linejoin:round;stroke-miterlimit:4;stroke-dasharray:none;stroke-opacity:1"
     d="M 15,170 V 115 A 25,25 0 0 1 40,90 v 0 h 5 V 55 A 50,50 0 0 1 95,5 h 10 a 50,50 0 0 1 50,50 v 35 h 5 a 25,25 0 0 1 25,25 v 55 a 25,25 0 0 1 -25,25 H 40 A 25,25 0 0 1 15,170 Z M 65,90 V 55 A 30,30 0 0 1 95,25 h 10 a 30,30 0 0 1 30,30 v 35 z"
     id="path12483"
     sodipodi:nodetypes="ccccccccccccc"
     transform="matrix(0.94736842,0,0,0.94736842,5.263158,5.263158)" />
</svg>
