<svg xmlns="http://www.w3.org/2000/svg" id="svg11772" width="200" height="200" version="1.1"><defs id="defs11755"><style id="style11732">.cls-1,.cls-2,.cls-3{fill:#a9b0dc;stroke:#3c3c3c;stroke-linejoin:round;stroke-width:8px;fill-rule:evenodd}</style></defs><path id="path12483" d="M15 170v-55a25 25 0 0 1 25-25h0V55A50 50 0 0 1 90 5h20a50 50 0 0 1 50 50v35a25 25 0 0 1 25 25v55a25 25 0 0 1-25 25H40a25 25 0 0 1-25-25zm55-80V55a20 20 0 0 1 20-20h20a20 20 0 0 1 20 20v35z" style="fill:#f2f2f2;fill-opacity:1;fill-rule:evenodd;stroke:#000;stroke-width:15;stroke-linecap:round;stroke-linejoin:round;stroke-miterlimit:4;stroke-dasharray:none;stroke-opacity:1" transform="matrix(.97561 0 0 .97561 2.439 2.439)"/></svg>