<svg xmlns="http://www.w3.org/2000/svg" width="256" height="256"><defs><clipPath id="a" clipPathUnits="userSpaceOnUse"><circle cx="128" cy="128" r="128" style="display:inline;fill:none;stroke:none"/></clipPath></defs><circle cx="128" cy="128" r="128" style="display:inline;fill:#000;fill-opacity:1"/><circle cx="128" cy="128" r="128" clip-path="url(#a)" style="display:inline;fill:none;fill-opacity:1;stroke:#fff;stroke-width:20;stroke-miterlimit:4;stroke-dasharray:none;stroke-opacity:.55"/><path d="m164.76 128-53.382 30.82-53.381 30.82V66.36l53.381 30.82z" style="display:inline;fill:#fff;fill-opacity:1;fill-rule:evenodd;stroke:none;stroke-width:1px;stroke-linecap:butt;stroke-linejoin:miter;stroke-opacity:1" transform="matrix(.61819 0 0 .79711 29.147 25.97)"/><g style="font-size:172.282px;line-height:125%;font-family:Verdana;-inkscape-font-specification:Verdana;letter-spacing:0;word-spacing:0;stroke-width:.984469px"><path d="M196.663 97.587q0 8.244-2.944 14.721-2.944 6.394-7.74 11.357-4.71 4.795-10.851 9.001-6.141 4.206-13.039 8.16v18.927h-15.058v-25.657q5.468-3.112 11.777-6.814 6.393-3.701 10.431-7.487 4.88-4.374 7.571-9 2.692-4.712 2.692-11.946 0-9.506-6.477-14.133-6.393-4.71-16.572-4.71-9.085 0-17.245 2.86-8.076 2.86-12.787 5.804h-.841V71.51q5.889-2.272 14.89-4.039 9.085-1.85 17.16-1.85 18.087 0 28.518 8.832 10.515 8.75 10.515 23.134zm-33.228 95.815h-17.161v-17.75h17.16z" aria-label="?" style="fill:#fff" transform="matrix(1.01578 0 0 .98447 0 .5)"/></g></svg>