<svg xmlns="http://www.w3.org/2000/svg" width="200" height="200"><path d="M15 170v-55a25 25 0 0 1 25-25v0h5V55A50 50 0 0 1 95 5h10a50 50 0 0 1 50 50v35h5a25 25 0 0 1 25 25v55a25 25 0 0 1-25 25H40a25 25 0 0 1-25-25m50-80V55a30 30 0 0 1 30-30h10a30 30 0 0 1 30 30v35z" style="fill:#000;fill-opacity:1;fill-rule:evenodd;stroke:#222;stroke-width:0;stroke-linecap:round;stroke-linejoin:round;stroke-miterlimit:4;stroke-dasharray:none;stroke-opacity:1" transform="matrix(.94737 0 0 .94737 5.263 5.263)"/></svg>